<svg xmlns="http://www.w3.org/2000/svg" viewBox="0 0 1200 800" preserveAspectRatio="xMidYMid slice">
  <defs><linearGradient id="shade" x2=".3" y2="1"><stop stop-color="#121c33"/><stop offset="1" stop-color="#070b15"/></linearGradient><radialGradient id="glow" cx="78%" cy="16%" r="95%"><stop stop-color="#cb4f5b" stop-opacity=".13"/><stop offset="1" stop-color="#cb4f5b" stop-opacity="0"/></radialGradient><pattern id="stars" width="84" height="70" patternUnits="userSpaceOnUse"><path d="m21 12 4 12h13l-10 8 4 12-11-7-10 7 4-12-10-8h12Z" fill="#fff"/></pattern></defs>
  <rect width="1200" height="800" fill="url(#shade)"/>
  <g opacity=".12"><path fill="#c9505b" d="M0 0h1200v61.54H0zm0 123.08h1200v61.54H0zm0 246.16h1200v61.54H0zm0 369.24h1200v61.54H0zm0 492.32h1200v61.54H0zm0 615.4h1200v61.54H0zm0 738.48h1200v61.54H0z"/><path fill="#e8eef6" d="M0 61.54h1200v61.54H0zm0 184.62h1200v61.54H0zm0 307.7h1200v61.54H0zm0 430.78h1200v61.54H0zm0 553.86h1200v61.54H0zm0 676.94h1200v61.54H0z"/><rect width="504" height="430.78" fill="#3d4c96"/><rect width="504" height="430.78" fill="url(#stars)"/></g>
  <rect width="1200" height="800" fill="url(#glow)"/>
</svg>
